<?xml version="1.0" encoding="utf-8"?>
<!-- Generator: Adobe Illustrator 19.2.1, SVG Export Plug-In . SVG Version: 6.00 Build 0)  -->
<svg version="1.1" id="Layer_1" xmlns="http://www.w3.org/2000/svg" xmlns:xlink="http://www.w3.org/1999/xlink" x="0px" y="0px"
	 viewBox="0 0 850.4 850.4" style="enable-background:new 0 0 850.4 850.4;" xml:space="preserve">
<style type="text/css">
	.st0{fill:#010202;}
</style>
<g>
	<g id="Layer_x0020_1_1_">
		<g>
			<path id="_74416096_9_" class="st0" d="M612.8,603.9c-16,47.3-85.7,88.4-143,73.9C340.9,645,234.6,465.9,150.5,139.7
				c37.1,0.2,75.5,5.4,114.7,15.3C534.8,223.5,678.7,364.1,696,575.3c8.3-11.7,14.7-26.6,18.9-43.3c26.1-102.7-6.9-197.3-98.9-283.9
				C539.6,176,445.7,125.8,334.2,97.5C257.6,78,151,64.7,15.6,57.3l0,0c30.9,37.5,56.6,87.5,76.4,150.5
				c14.8,53.8,30.3,107.8,46.3,161.9c73.5,219.5,177.2,346,309.2,379.5c122,31,173.7-40.6,229.2-88.5"/>
		</g>
	</g>
	<g>
		<g>
			<path class="st0" d="M373.4,422.3c8,6.7,39.6,32.5,48.2,39.6c1.4,1.1,5.8,1.9,7.4,1.3c12.4-4.6,26.3-10.2,38.6-14.9
				c3.1-1.2,4.4-3.5,4.8-6.5c2-13.2,4-26.3,6-39.5c0.5-3.3,0-5.9-2.4-7.9c-14.2-12.1-45.8-37.4-47.8-39.2c3.8-1.3,6.9-3.6,9.9-3.9
				c8.5-1,17.1-2.8,25.5-2.1c16.9,1.3,32.2,7.7,45.4,19.3c23.5,20.7,32.8,47.1,29.9,78.7c0,0.4-4.5,36.7-9,42.8
				c-8.8,11.8,10.5-13,0,0c-6.4,7.9-43.6,25.3-44.6,25.7c-34.3,12.7-71.6,0.6-94.2-30.8c-12.2-17.1-20.1-33.8-20.1-54.5
				C371,428.5,372.6,425.1,373.4,422.3z"/>
			
				<rect x="553.8" y="400.5" transform="matrix(0.6343 -0.7731 0.7731 0.6343 -204.5324 653.8231)" class="st0" width="70.1" height="285.2"/>
			
				<rect x="641.4" y="359" transform="matrix(0.6343 -0.7731 0.7731 0.6343 -207.9674 723.3659)" class="st0" width="38.4" height="444.9"/>
		</g>
	</g>
</g>
</svg>
