<?xml version="1.0" standalone="no"?>
<!DOCTYPE svg PUBLIC "-//W3C//DTD SVG 20010904//EN"
 "http://www.w3.org/TR/2001/REC-SVG-20010904/DTD/svg10.dtd">
<svg version="1.0" xmlns="http://www.w3.org/2000/svg"
 width="700.000000pt" height="700.000000pt" viewBox="0 0 700.000000 700.000000"
 preserveAspectRatio="xMidYMid meet">
<metadata>
Created by potrace 1.11, written by Peter Selinger 2001-2013
</metadata>
<g transform="translate(0.000000,700.000000) scale(0.100000,-0.100000)"
fill="#000000" stroke="none">
<path d="M975 6983 c-494 -89 -870 -467 -959 -965 -13 -72 -15 -404 -14 -2513
0 -1970 3 -2446 13 -2515 62 -397 326 -735 695 -892 47 -20 111 -44 143 -53
155 -44 91 -43 2677 -41 1350 1 2464 4 2475 8 17 5 69 15 100 19 6 1 46 14 90
29 366 125 647 415 755 780 50 169 49 69 46 2695 l-2 2460 -26 100 c-49 188
-105 307 -212 445 -171 223 -397 367 -686 436 -71 17 -200 18 -2545 20 -2111
2 -2482 0 -2550 -13z m75 -1337 c47 -3 126 -8 175 -11 50 -3 108 -8 130 -10
22 -2 81 -7 130 -10 50 -3 108 -8 130 -10 22 -2 72 -7 110 -10 39 -3 84 -8
100 -10 17 -2 57 -6 90 -10 33 -3 74 -8 90 -10 17 -2 53 -7 80 -10 28 -3 97
-13 155 -21 58 -8 121 -17 140 -20 19 -3 58 -9 85 -14 28 -5 66 -12 85 -15
320 -50 761 -176 1070 -308 644 -273 1220 -727 1536 -1208 124 -187 238 -470
259 -636 4 -26 10 -62 15 -80 8 -33 6 -356 -3 -410 -36 -207 -56 -276 -108
-388 -48 -103 -52 -101 -70 42 -9 70 -19 142 -23 158 -27 140 -30 154 -54 245
-46 167 -131 378 -219 539 -47 87 -187 300 -220 336 -10 11 -36 43 -58 70 -55
68 -236 250 -315 317 -82 69 -257 201 -290 218 -14 7 -27 16 -30 19 -8 10
-107 70 -230 139 -340 192 -760 355 -1260 488 -103 28 -345 73 -450 84 -106
12 -300 22 -300 15 0 -13 112 -414 161 -580 94 -312 243 -755 293 -869 8 -17
24 -58 37 -91 40 -106 165 -386 231 -520 404 -818 886 -1296 1379 -1368 286
-41 654 142 793 395 l36 65 -77 64 c-43 35 -105 86 -138 112 -33 27 -80 66
-105 87 -25 21 -130 107 -234 192 l-189 154 -66 -24 c-80 -30 -211 -38 -287
-17 -91 24 -175 74 -246 145 -124 127 -204 317 -182 433 7 34 12 34 49 -1 56
-50 252 -210 273 -221 11 -6 29 -8 39 -5 46 15 249 95 260 102 7 4 15 26 18
47 4 22 8 51 11 65 2 14 9 65 16 114 l12 89 -30 26 c-40 35 -84 71 -193 161
-50 41 -91 78 -91 81 0 18 83 33 180 32 123 0 184 -19 283 -87 159 -109 248
-302 233 -509 l-5 -82 33 -25 c18 -14 53 -41 77 -62 63 -52 346 -284 699 -573
168 -137 310 -254 316 -260 7 -5 67 -55 134 -110 104 -85 327 -268 395 -324
11 -9 70 -56 130 -105 61 -49 122 -101 137 -114 l27 -24 -76 -94 -75 -94 -76
63 c-243 197 -533 435 -575 470 -99 84 -139 111 -145 101 -34 -50 -135 -162
-198 -219 -42 -38 -82 -75 -88 -81 -17 -16 -119 -106 -152 -134 -168 -142
-320 -231 -466 -274 -32 -9 -59 -17 -60 -17 -76 -25 -326 -36 -418 -19 -25 4
-66 11 -91 14 -60 8 -271 70 -326 96 -24 11 -45 20 -49 20 -3 0 -45 19 -92 43
-128 64 -201 111 -387 249 -60 45 -313 306 -387 398 -177 224 -341 488 -480
775 -27 55 -53 108 -58 117 -15 27 -87 199 -156 373 -96 244 -161 448 -329
1040 -111 393 -138 480 -204 643 -35 88 -112 251 -148 317 -46 81 -116 192
-161 253 -52 72 -74 111 -56 100 5 -3 47 -9 94 -12z"/>
</g>
</svg>
